<?xml version="1.0" encoding="us-ascii" standalone="no"?><svg xmlns="http://www.w3.org/2000/svg" xmlns:xlink="http://www.w3.org/1999/xlink" contentStyleType="text/css" height="298px" preserveAspectRatio="none" style="width:193px;height:298px;background:#FFFFFF;" version="1.1" viewBox="0 0 193 298" width="193px" zoomAndPan="magnify"><defs/><g><ellipse cx="96.5" cy="20" fill="#222222" rx="10" ry="10" style="stroke:#222222;stroke-width:1.0;"/><rect fill="#F1F1F1" height="33.9688" rx="12.5" ry="12.5" style="stroke:#181818;stroke-width:0.5;" width="87" x="53" y="50"/><text fill="#000000" font-family="sans-serif" font-size="12" lengthAdjust="spacing" textLength="67" x="63" y="71.1387">Zaloguj si&#281;</text><rect fill="#F1F1F1" height="33.9688" rx="12.5" ry="12.5" style="stroke:#181818;stroke-width:0.5;" width="171" x="11" y="103.9688"/><text fill="#000000" font-family="sans-serif" font-size="12" lengthAdjust="spacing" textLength="151" x="21" y="125.1074">Wy&#347;wietl list&#281; znajomych</text><rect fill="#F1F1F1" height="33.9688" rx="12.5" ry="12.5" style="stroke:#181818;stroke-width:0.5;" width="114" x="39.5" y="157.9375"/><text fill="#000000" font-family="sans-serif" font-size="12" lengthAdjust="spacing" textLength="94" x="49.5" y="179.0762">Rozpocznij czat</text><rect fill="#F1F1F1" height="33.9688" rx="12.5" ry="12.5" style="stroke:#181818;stroke-width:0.5;" width="90" x="51.5" y="211.9063"/><text fill="#000000" font-family="sans-serif" font-size="12" lengthAdjust="spacing" textLength="70" x="61.5" y="233.0449">Wyloguj si&#281;</text><ellipse cx="96.5" cy="276.875" fill="none" rx="11" ry="11" style="stroke:#222222;stroke-width:1.0;"/><ellipse cx="96.5" cy="276.875" fill="#222222" rx="6" ry="6" style="stroke:#222222;stroke-width:1.0;"/><line style="stroke:#181818;stroke-width:1.0;" x1="96.5" x2="96.5" y1="30" y2="50"/><polygon fill="#181818" points="92.5,40,96.5,50,100.5,40,96.5,44" style="stroke:#181818;stroke-width:1.0;"/><line style="stroke:#181818;stroke-width:1.0;" x1="96.5" x2="96.5" y1="83.9688" y2="103.9688"/><polygon fill="#181818" points="92.5,93.9688,96.5,103.9688,100.5,93.9688,96.5,97.9688" style="stroke:#181818;stroke-width:1.0;"/><line style="stroke:#181818;stroke-width:1.0;" x1="96.5" x2="96.5" y1="137.9375" y2="157.9375"/><polygon fill="#181818" points="92.5,147.9375,96.5,157.9375,100.5,147.9375,96.5,151.9375" style="stroke:#181818;stroke-width:1.0;"/><line style="stroke:#181818;stroke-width:1.0;" x1="96.5" x2="96.5" y1="191.9063" y2="211.9063"/><polygon fill="#181818" points="92.5,201.9063,96.5,211.9063,100.5,201.9063,96.5,205.9063" style="stroke:#181818;stroke-width:1.0;"/><line style="stroke:#181818;stroke-width:1.0;" x1="96.5" x2="96.5" y1="245.875" y2="265.875"/><polygon fill="#181818" points="92.5,255.875,96.5,265.875,100.5,255.875,96.5,259.875" style="stroke:#181818;stroke-width:1.0;"/><!--SRC=[JSkn3S8m44RXtbEuemhkpHOqI7I7YPApR9-L-mEoDubO9-m5eg9-tplCG5NlN4rKiEPq398T1V23qOOxqxHG7cuZo1W5BJ3-IaccDLhbVJiPVsdlrvD799jOiM-s5ugIMvY_yIozIkY5emsTyEF_jqBg1m00]--></g></svg>