<?xml version="1.0" encoding="us-ascii" standalone="no"?><svg xmlns="http://www.w3.org/2000/svg" xmlns:xlink="http://www.w3.org/1999/xlink" contentStyleType="text/css" height="244px" preserveAspectRatio="none" style="width:276px;height:244px;background:#FFFFFF;" version="1.1" viewBox="0 0 276 244" width="276px" zoomAndPan="magnify"><defs/><g><ellipse cx="138" cy="20" fill="#222222" rx="10" ry="10" style="stroke:#222222;stroke-width:1.0;"/><rect fill="#F1F1F1" height="33.9688" rx="12.5" ry="12.5" style="stroke:#181818;stroke-width:0.5;" width="254" x="11" y="50"/><text fill="#000000" font-family="sans-serif" font-size="12" lengthAdjust="spacing" textLength="234" x="21" y="71.1387">Wy&#347;wietl stron&#281; dodawania znajomych</text><rect fill="#F1F1F1" height="33.9688" rx="12.5" ry="12.5" style="stroke:#181818;stroke-width:0.5;" width="126" x="75" y="103.9688"/><text fill="#000000" font-family="sans-serif" font-size="12" lengthAdjust="spacing" textLength="106" x="85" y="125.1074">Dodaj znajomego</text><rect fill="#F1F1F1" height="33.9688" rx="12.5" ry="12.5" style="stroke:#181818;stroke-width:0.5;" width="171" x="52.5" y="157.9375"/><text fill="#000000" font-family="sans-serif" font-size="12" lengthAdjust="spacing" textLength="151" x="62.5" y="179.0762">Wy&#347;wietl list&#281; znajomych</text><ellipse cx="138" cy="222.9063" fill="none" rx="11" ry="11" style="stroke:#222222;stroke-width:1.0;"/><ellipse cx="138" cy="222.9063" fill="#222222" rx="6" ry="6" style="stroke:#222222;stroke-width:1.0;"/><line style="stroke:#181818;stroke-width:1.0;" x1="138" x2="138" y1="30" y2="50"/><polygon fill="#181818" points="134,40,138,50,142,40,138,44" style="stroke:#181818;stroke-width:1.0;"/><line style="stroke:#181818;stroke-width:1.0;" x1="138" x2="138" y1="83.9688" y2="103.9688"/><polygon fill="#181818" points="134,93.9688,138,103.9688,142,93.9688,138,97.9688" style="stroke:#181818;stroke-width:1.0;"/><line style="stroke:#181818;stroke-width:1.0;" x1="138" x2="138" y1="137.9375" y2="157.9375"/><polygon fill="#181818" points="134,147.9375,138,157.9375,142,147.9375,138,151.9375" style="stroke:#181818;stroke-width:1.0;"/><line style="stroke:#181818;stroke-width:1.0;" x1="138" x2="138" y1="191.9063" y2="211.9063"/><polygon fill="#181818" points="134,201.9063,138,211.9063,142,201.9063,138,205.9063" style="stroke:#181818;stroke-width:1.0;"/><!--SRC=[NOmn3W8X54HxJa5djTBljjx1-Wjazs-0Js1qmzx4U1szboHQ6AUSUVCE2v3hQ4mEb72DuMWb6hBW6wCDZcak58UB1obLGGLAATqpdjlhiR57q1L5qlEkdJZQA37fFT4giTbb-h2dlgpVriyo_Hi2LtJ1pwr2yXi0]--></g></svg>