<?xml version="1.0" encoding="us-ascii" standalone="no"?><svg xmlns="http://www.w3.org/2000/svg" xmlns:xlink="http://www.w3.org/1999/xlink" contentStyleType="text/css" height="880px" preserveAspectRatio="none" style="width:911px;height:880px;background:#FFFFFF;" version="1.1" viewBox="0 0 911 880" width="911px" zoomAndPan="magnify"><defs/><g><!--cluster Prowadzenie_Czatu--><g id="cluster_Prowadzenie_Czatu"><path d="M320.5,408.5 L477.5,408.5 A3.75,3.75 0 0 1 480,411 L487,430.7969 L585.5,430.7969 A2.5,2.5 0 0 1 588,433.2969 L588,750 A2.5,2.5 0 0 1 585.5,752.5 L320.5,752.5 A2.5,2.5 0 0 1 318,750 L318,411 A2.5,2.5 0 0 1 320.5,408.5 " fill="none" style="stroke:#000000;stroke-width:1.5;"/><line style="stroke:#000000;stroke-width:1.5;" x1="318" x2="487" y1="430.7969" y2="430.7969"/><text fill="#000000" font-family="sans-serif" font-size="14" font-weight="bold" lengthAdjust="spacing" textLength="156" x="322" y="423.4951">Prowadzenie_Czatu</text></g><g id="elem_UC1"><ellipse cx="452.7599" cy="465.352" fill="#F1F1F1" rx="97.2599" ry="21.852" style="stroke:#181818;stroke-width:0.5;"/><text fill="#000000" font-family="sans-serif" font-size="14" lengthAdjust="spacing" textLength="158" x="373.7599" y="468.1987">Wysy&#322;anie wiadomo&#347;ci</text></g><g id="elem_UC2"><ellipse cx="452.8822" cy="545.5764" fill="#F1F1F1" rx="100.8822" ry="22.5764" style="stroke:#181818;stroke-width:0.5;"/><text fill="#000000" font-family="sans-serif" font-size="14" lengthAdjust="spacing" textLength="166" x="369.8822" y="548.4231">Odbieranie wiadomo&#347;ci</text></g><g id="elem_UC3"><ellipse cx="453.2042" cy="626.4408" fill="#F1F1F1" rx="102.7042" ry="22.9408" style="stroke:#181818;stroke-width:0.5;"/><text fill="#000000" font-family="sans-serif" font-size="14" lengthAdjust="spacing" textLength="170" x="368.2042" y="629.2875">Przegl&#261;danie wiadmo&#347;ci</text></g><g id="elem_UC4"><ellipse cx="452.8973" cy="710.6795" fill="#F1F1F1" rx="118.8973" ry="26.1795" style="stroke:#181818;stroke-width:0.5;"/><text fill="#000000" font-family="sans-serif" font-size="14" lengthAdjust="spacing" textLength="205" x="350.3973" y="713.5261">Prowadzenia rozmowy wideo</text></g><!--entity RU--><g id="elem_RU"><ellipse cx="112" cy="791" fill="#F1F1F1" rx="8" ry="8" style="stroke:#181818;stroke-width:0.5;"/><path d="M112,799 L112,826 M99,807 L125,807 M112,826 L99,841 M112,826 L125,841 " fill="none" style="stroke:#181818;stroke-width:0.5;"/><text fill="#000000" font-family="sans-serif" font-size="14" lengthAdjust="spacing" textLength="191" x="16.5" y="855.4951">Zarejstrowany_u&#380;ytkownik</text></g><!--entity ZU--><g id="elem_ZU"><ellipse cx="112" cy="476" fill="#F1F1F1" rx="8" ry="8" style="stroke:#181818;stroke-width:0.5;"/><path d="M112,484 L112,511 M99,492 L125,492 M112,511 L99,526 M112,511 L125,526 " fill="none" style="stroke:#181818;stroke-width:0.5;"/><text fill="#000000" font-family="sans-serif" font-size="14" lengthAdjust="spacing" textLength="174" x="25" y="540.4951">Zalogowany_u&#380;ytkownik</text></g><!--entity NU--><g id="elem_NU"><ellipse cx="112" cy="196" fill="#F1F1F1" rx="8" ry="8" style="stroke:#181818;stroke-width:0.5;"/><path d="M112,204 L112,231 M99,212 L125,212 M112,231 L99,246 M112,231 L125,246 " fill="none" style="stroke:#181818;stroke-width:0.5;"/><text fill="#000000" font-family="sans-serif" font-size="14" lengthAdjust="spacing" textLength="212" x="6" y="260.4951">Niezarejstrowany_u&#380;ytkownik</text></g><!--entity A--><g id="elem_A"><ellipse cx="112" cy="85" fill="#F1F1F1" rx="8" ry="8" style="stroke:#181818;stroke-width:0.5;"/><path d="M112,93 L112,120 M99,101 L125,101 M112,120 L99,135 M112,120 L125,135 " fill="none" style="stroke:#181818;stroke-width:0.5;"/><text fill="#000000" font-family="sans-serif" font-size="14" lengthAdjust="spacing" textLength="46" x="89" y="149.4951">Admin</text></g><g id="elem_Wylogowanie"><ellipse cx="452.9333" cy="292.4867" fill="#F1F1F1" rx="70.4333" ry="16.4867" style="stroke:#181818;stroke-width:0.5;"/><text fill="#000000" font-family="sans-serif" font-size="14" lengthAdjust="spacing" textLength="94" x="402.9333" y="296.2342">Wylogowanie</text></g><g id="elem_Wyszukiwanie znajomych"><ellipse cx="452.7877" cy="368.3575" fill="#F1F1F1" rx="107.2877" ry="23.8575" style="stroke:#181818;stroke-width:0.5;"/><text fill="#000000" font-family="sans-serif" font-size="14" lengthAdjust="spacing" textLength="180" x="362.7877" y="371.2042">Wyszukiwanie znajomych</text></g><g id="elem_Dodanie znajomego"><ellipse cx="796.6144" cy="291.4229" fill="#F1F1F1" rx="90.1144" ry="20.4229" style="stroke:#181818;stroke-width:0.5;"/><text fill="#000000" font-family="sans-serif" font-size="14" lengthAdjust="spacing" textLength="142" x="725.6144" y="294.2696">Dodanie znajomego</text></g><g id="elem_Usuni&#281;cie znajomego"><ellipse cx="796.6693" cy="368.6339" fill="#F1F1F1" rx="93.6693" ry="21.1339" style="stroke:#181818;stroke-width:0.5;"/><text fill="#000000" font-family="sans-serif" font-size="14" lengthAdjust="spacing" textLength="150" x="721.6693" y="371.4805">Usuni&#281;cie znajomego</text></g><g id="elem_Zablokowanie znajomego"><ellipse cx="796.6701" cy="448.634" fill="#F1F1F1" rx="108.6701" ry="24.134" style="stroke:#181818;stroke-width:0.5;"/><text fill="#000000" font-family="sans-serif" font-size="14" lengthAdjust="spacing" textLength="183" x="705.1701" y="451.4807">Zablokowanie znajomego</text></g><g id="elem_Logowanie"><ellipse cx="453.0594" cy="786.7119" fill="#F1F1F1" rx="64.0594" ry="15.2119" style="stroke:#181818;stroke-width:0.5;"/><text fill="#000000" font-family="sans-serif" font-size="14" lengthAdjust="spacing" textLength="76" x="412.0594" y="790.4594">Logowanie</text></g><g id="elem_Odzyskanie has&#322;a"><ellipse cx="452.9455" cy="855.6891" fill="#F1F1F1" rx="81.4455" ry="18.6891" style="stroke:#181818;stroke-width:0.5;"/><text fill="#000000" font-family="sans-serif" font-size="14" lengthAdjust="spacing" textLength="122" x="390.8109" y="858.909">Odzyskanie has&#322;a</text></g><g id="elem_Rejestracja"><ellipse cx="452.92" cy="225.484" fill="#F1F1F1" rx="65.42" ry="15.484" style="stroke:#181818;stroke-width:0.5;"/><text fill="#000000" font-family="sans-serif" font-size="14" lengthAdjust="spacing" textLength="80" x="409.92" y="229.2316">Rejestracja</text></g><g id="elem_Utrzymanie bazy danych"><ellipse cx="452.9911" cy="29.3982" fill="#F1F1F1" rx="104.9911" ry="23.3982" style="stroke:#181818;stroke-width:0.5;"/><text fill="#000000" font-family="sans-serif" font-size="14" lengthAdjust="spacing" textLength="175" x="365.4911" y="32.2449">Utrzymanie bazy danych</text></g><g id="elem_Zapewnienie bezpiecze&#324;stwa u&#380;ytkownikom"><ellipse cx="452.898" cy="125.3796" fill="#F1F1F1" rx="174.898" ry="37.3796" style="stroke:#181818;stroke-width:0.5;"/><text fill="#000000" font-family="sans-serif" font-size="14" lengthAdjust="spacing" textLength="322" x="291.898" y="128.2263">Zapewnienie bezpiecze&#324;stwa u&#380;ytkownikom</text></g><!--link ZU to UC1--><g id="link_ZU_UC1"><path d="M199.421,495.303 C250.621,489.262 309.2973,482.3381 360.3653,476.3121 " fill="none" id="ZU-to-UC1" style="stroke:#181818;stroke-width:1.0;"/><polygon fill="#181818" points="366.324,475.609,356.9173,472.6912,361.3585,476.1949,357.8548,480.6361,366.324,475.609" style="stroke:#181818;stroke-width:1.0;"/></g><!--link ZU to UC2--><g id="link_ZU_UC2"><path d="M199.421,515.697 C249.64,521.623 306.8253,528.3698 357.4163,534.3398 " fill="none" id="ZU-to-UC2" style="stroke:#181818;stroke-width:1.0;"/><polygon fill="#181818" points="363.375,535.043,354.9058,530.0158,358.4095,534.457,353.9682,537.9607,363.375,535.043" style="stroke:#181818;stroke-width:1.0;"/></g><!--link ZU to UC3--><g id="link_ZU_UC3"><path d="M183.001,543.664 C211.811,558.247 245.903,574.094 278,585.5 C308.56,596.36 337.3036,603.8982 367.5586,610.5412 " fill="none" id="ZU-to-UC3" style="stroke:#181818;stroke-width:1.0;"/><polygon fill="#181818" points="373.419,611.828,365.4862,605.9909,368.5353,610.7557,363.7706,613.8048,373.419,611.828" style="stroke:#181818;stroke-width:1.0;"/></g><!--link ZU to UC4--><g id="link_ZU_UC4"><path d="M141.548,543.547 C171.486,580.733 221.919,636.186 278,667.5 C301.229,680.471 322.5257,688.1366 348.3487,694.5086 " fill="none" id="ZU-to-UC4" style="stroke:#181818;stroke-width:1.0;"/><polygon fill="#181818" points="354.174,695.946,346.3944,689.9063,349.3196,694.7481,344.4778,697.6734,354.174,695.946" style="stroke:#181818;stroke-width:1.0;"/></g><!--link ZU to Wylogowanie--><g id="link_ZU_Wylogowanie"><path d="M137.131,467.373 C165.557,425.826 216.752,360.721 278,326.5 C310.11,308.559 344.1996,300.681 377.7776,296.611 " fill="none" id="ZU-to-Wylogowanie" style="stroke:#181818;stroke-width:1.0;"/><polygon fill="#181818" points="383.734,295.889,374.3181,293.001,378.7703,296.4906,375.2807,300.9429,383.734,295.889" style="stroke:#181818;stroke-width:1.0;"/></g><!--link ZU to Wyszukiwanie znajomych--><g id="link_ZU_Wyszukiwanie znajomych"><path d="M189.001,467.338 C216.706,454.023 248.478,439.437 278,427.5 C314.225,412.852 349.9144,400.557 383.2404,389.794 " fill="none" id="ZU-to-Wyszukiwanie znajomych" style="stroke:#181818;stroke-width:1.0;"/><polygon fill="#181818" points="388.95,387.95,379.1563,386.9096,384.192,389.4867,381.6149,394.5224,388.95,387.95" style="stroke:#181818;stroke-width:1.0;"/></g><!--link Wyszukiwanie znajomych to Dodanie znajomego--><g id="link_Wyszukiwanie znajomych_Dodanie znajomego"><path d="M529.366,351.507 C590.061,337.822 668.5759,320.1188 725.9369,307.1848 " fill="none" id="Wyszukiwanie znajomych-to-Dodanie znajomego" style="stroke:#181818;stroke-width:1.0;"/><polygon fill="#181818" points="731.79,305.865,722.1306,303.9426,726.9125,306.9648,723.8903,311.7467,731.79,305.865" style="stroke:#181818;stroke-width:1.0;"/></g><!--link Wyszukiwanie znajomych to Usuni?cie znajomego--><g id="link_Wyszukiwanie znajomych_Usuni&#281;cie znajomego"><path d="M560.648,368.5 C606.247,368.5 652.981,368.5 696.912,368.5 " fill="none" id="Wyszukiwanie znajomych-to-Usuni&#281;cie znajomego" style="stroke:#181818;stroke-width:1.0;"/><polygon fill="#181818" points="702.912,368.5,693.912,364.5,697.912,368.5,693.912,372.5,702.912,368.5" style="stroke:#181818;stroke-width:1.0;"/></g><!--link Wyszukiwanie znajomych to Zablokowanie znajomego--><g id="link_Wyszukiwanie znajomych_Zablokowanie znajomego"><path d="M528.1,385.859 C585.283,399.255 658.1871,416.3335 715.4081,429.7375 " fill="none" id="Wyszukiwanie znajomych-to-Zablokowanie znajomego" style="stroke:#181818;stroke-width:1.0;"/><polygon fill="#181818" points="721.25,431.106,713.3995,425.1587,716.3818,429.9656,711.5749,432.9479,721.25,431.106" style="stroke:#181818;stroke-width:1.0;"/></g><!--link RU to Logowanie--><g id="link_RU_Logowanie"><path d="M207.881,810.9839 C267.623,804.9921 336.847,798.0493 387.883,792.9307 " fill="none" id="RU-to-Logowanie" style="stroke:#181818;stroke-width:1.0;"/><polygon fill="#181818" points="393.853,792.3319,384.4988,789.25,388.878,792.8309,385.2971,797.2101,393.853,792.3319" style="stroke:#181818;stroke-width:1.0;"/></g><!--link RU to Odzyskanie has?a--><g id="link_RU_Odzyskanie has&#322;a"><path d="M207.881,830.296 C261.845,835.8675 322.4477,842.1244 372.4337,847.2852 " fill="none" id="RU-to-Odzyskanie has&#322;a" style="stroke:#181818;stroke-width:1.0;"/><polygon fill="#181818" points="378.402,847.9014,369.8604,842.9983,373.4284,847.3879,369.0388,850.956,378.402,847.9014" style="stroke:#181818;stroke-width:1.0;"/></g><!--link NU to Rejestracja--><g id="link_NU_Rejestracja"><path d="M218.403,225.5 C273.7,225.5 333.67,225.5 381.378,225.5 " fill="none" id="NU-to-Rejestracja" style="stroke:#181818;stroke-width:1.0;"/><polygon fill="#181818" points="387.378,225.5,378.378,221.5,382.378,225.5,378.378,229.5,387.378,225.5" style="stroke:#181818;stroke-width:1.0;"/></g><!--link A to Utrzymanie bazy danych--><g id="link_A_Utrzymanie bazy danych"><path d="M135.098,108.387 C166.704,99.695 226.674,83.388 278,70.5 C310.961,62.224 341.7155,54.8874 372.8095,47.6434 " fill="none" id="A-to-Utrzymanie bazy danych" style="stroke:#181818;stroke-width:1.0;"/><polygon fill="#181818" points="378.653,46.282,368.9801,44.4284,373.7834,47.4165,370.7953,52.2197,378.653,46.282" style="stroke:#181818;stroke-width:1.0;"/></g><!--link A to Zapewnienie bezpiecze?stwa u?ytkownikom--><g id="link_A_Zapewnienie bezpiecze&#324;stwa u&#380;ytkownikom"><path d="M135.243,115.222 C165.513,116.204 216.5162,117.8595 273.9122,119.7215 " fill="none" id="A-to-Zapewnienie bezpiecze&#324;stwa u&#380;ytkownikom" style="stroke:#181818;stroke-width:1.0;"/><polygon fill="#181818" points="279.909,119.916,271.0434,115.6263,274.9116,119.7539,270.784,123.6221,279.909,119.916" style="stroke:#181818;stroke-width:1.0;"/></g><!--SRC=[bPAnRjim48PtFiKXI-h1CPfaob30ICR02GmO0Rm4P_8gqn9r0ab188iiGViGHLybO_nUfLJ9KOeaHJa8n7_VJ_r7tl7M-yfTp6PLWQMlJN4YsSngHrE9wQCqPXQD40LzzU0PhCws7fIs9BtcKWYKdYsiqTBEUSiDbk6-tZy5dtDJwXpGmN9re0hEtaJM0xBG53ywQp60SsLqsIfp8IgKEMO4jwr7HIertLz6z3Ly4m2fcRONEBeBBkmVCLMXqQZOyFwNr4Vj8QlBpsFoHcqqsNV8qp5vQoDbnVCFTO1ViMUlsI4UWkLek0d9eOXx-5myYBJMAvXEltIH3jlJaNpsiZq_o9_kGd-tcYOZqSKwrvqAiSGTco2t4_5UuO_hYjL8fup_PLYvkjJFF-N_UDQuAJZdvky_2R7imr-_z3D8Doe6btUMBRhqbebVzBKbxIXD3SfTgyxxPDx6O3h31cE0r5Xt0VCXH4LfigYhKwmqoKZxxyut2AF1OpFv3G00]--></g></svg>